<svg width="20" height="36" viewBox="0 0 20 36" fill="none" xmlns="http://www.w3.org/2000/svg">
<path d="M1 4.52278C1 3.50804 1.82261 2.68542 2.83736 2.68542H3.12003C4.13477 2.68542 4.95739 3.50804 4.95739 4.52278V16.9355C4.95739 17.8539 4.27925 18.6312 3.36933 18.7558L3.08667 18.7945C1.98313 18.9457 1 18.088 1 16.9742V4.52278Z" fill="white"/>
<path d="M5.80539 1.83736C5.80539 0.822613 6.628 0 7.64275 0H7.92542C8.94016 0 9.76278 0.822613 9.76278 1.83736V16.9996C9.76278 17.9369 9.05726 18.7239 8.12555 18.826L7.84288 18.857C6.75542 18.9762 5.80539 18.1245 5.80539 17.0306V1.83736Z" fill="white"/>
<path d="M10.6108 4.94673C10.6108 3.93199 11.4334 3.10938 12.4481 3.10938V3.10938C13.4629 3.10938 14.2855 3.93199 14.2855 4.94673V16.7295C14.2855 17.9241 13.1635 18.801 12.0044 18.5125V18.5125C11.1855 18.3087 10.6108 17.5733 10.6108 16.7295V4.94673Z" fill="white"/>
<path d="M15.1335 11.1115C15.1335 10.2827 15.8054 9.61084 16.6342 9.61084V9.61084C17.463 9.61084 18.1349 10.2827 18.1349 11.1115V13.7858C18.1349 14.6805 17.3569 15.3765 16.4677 15.2772V15.2772C15.708 15.1924 15.1335 14.5501 15.1335 13.7858V11.1115Z" fill="white"/>
<g filter="url(#filter0_d_607_86)">
<path d="M1.56534 19.6456C1.25311 19.6456 1 19.8987 1 20.2109V33.6378C1 33.95 1.25311 34.2031 1.56534 34.2031H12.4518C12.4839 34.2031 12.5127 34.201 12.5441 34.1945C13.0639 34.0876 18 32.903 18 26.5C18 19.8069 12.6064 19.6481 12.5015 19.6456C12.4983 19.6455 12.4984 19.6456 12.4951 19.6456H1.56534Z" fill="white"/>
<path d="M1.56534 19.6456C1.25311 19.6456 1 19.8987 1 20.2109V33.6378C1 33.95 1.25311 34.2031 1.56534 34.2031H12.4518C12.4839 34.2031 12.5127 34.201 12.5441 34.1945C13.0639 34.0876 18 32.903 18 26.5C18 19.8069 12.6064 19.6481 12.5015 19.6456C12.4983 19.6455 12.4984 19.6456 12.4951 19.6456H1.56534Z" stroke="white" stroke-width="0.141335"/>
</g>
<defs>
<filter id="filter0_d_607_86" x="0.363988" y="19.5749" width="18.272" height="15.8295" filterUnits="userSpaceOnUse" color-interpolation-filters="sRGB">
<feFlood flood-opacity="0" result="BackgroundImageFix"/>
<feColorMatrix in="SourceAlpha" type="matrix" values="0 0 0 0 0 0 0 0 0 0 0 0 0 0 0 0 0 0 127 0" result="hardAlpha"/>
<feOffset dy="0.565341"/>
<feGaussianBlur stdDeviation="0.28267"/>
<feComposite in2="hardAlpha" operator="out"/>
<feColorMatrix type="matrix" values="0 0 0 0 0 0 0 0 0 0 0 0 0 0 0 0 0 0 0.25 0"/>
<feBlend mode="normal" in2="BackgroundImageFix" result="effect1_dropShadow_607_86"/>
<feBlend mode="normal" in="SourceGraphic" in2="effect1_dropShadow_607_86" result="shape"/>
</filter>
</defs>
</svg>
